<?xml version="1.0" standalone="no"?>
<!DOCTYPE svg PUBLIC "-//W3C//DTD SVG 20010904//EN"
 "http://www.w3.org/TR/2001/REC-SVG-20010904/DTD/svg10.dtd">
<svg version="1.0" xmlns="http://www.w3.org/2000/svg"
 width="512.000000pt" height="512.000000pt" viewBox="0 0 512.000000 512.000000"
 preserveAspectRatio="xMidYMid meet">
<metadata>
Created by potrace 1.14, written by Peter Selinger 2001-2017
</metadata>
<g transform="translate(0.000000,512.000000) scale(0.100000,-0.100000)"
fill="#000000" stroke="none">
<path d="M2572 5058 c-9 -9 -9 -15 0 -25 9 -11 7 -12 -7 -7 -14 6 -16 4 -10
-6 6 -10 4 -12 -11 -6 -10 4 -15 4 -12 0 12 -12 -12 -46 -28 -40 -8 3 -13 2
-9 -3 3 -5 -11 -27 -32 -48 -20 -21 -32 -31 -28 -23 5 8 -8 -1 -28 -20 -20
-19 -37 -40 -37 -48 0 -7 -4 -10 -10 -7 -9 6 -15 -8 -11 -29 1 -5 -5 -6 -13
-3 -15 6 -69 -47 -59 -57 4 -3 -2 -6 -12 -6 -10 0 -16 -3 -13 -6 7 -7 -53 -70
-64 -67 -4 2 -10 -6 -13 -17 -4 -11 -11 -18 -16 -15 -5 4 -9 -1 -9 -9 0 -9 -6
-15 -12 -14 -7 2 -12 -3 -10 -9 1 -7 -3 -13 -9 -13 -5 0 -7 -6 -3 -12 5 -9 2
-8 -9 1 -15 12 -17 12 -11 -4 5 -12 4 -16 -4 -11 -13 8 -35 -28 -24 -39 4 -3
3 -6 -3 -5 -21 5 -36 0 -30 -10 3 -5 -1 -10 -10 -10 -9 0 -13 -4 -10 -10 6 -9
-8 -14 -28 -11 -5 1 -6 -3 -2 -9 7 -12 -18 -40 -36 -40 -7 0 -9 -3 -6 -7 4 -3
-3 -11 -15 -17 -13 -6 -28 -21 -34 -34 -6 -12 -14 -19 -17 -15 -4 3 -7 2 -7
-3 0 -6 -7 -19 -16 -30 -8 -10 -13 -12 -9 -4 4 8 -1 6 -9 -4 -9 -11 -16 -24
-16 -29 0 -4 -4 -6 -9 -3 -4 3 -13 -6 -20 -20 -6 -14 -16 -22 -21 -19 -6 3
-10 2 -10 -4 0 -14 -45 -61 -59 -61 -7 0 -9 -4 -6 -10 6 -9 -7 -14 -27 -11 -4
0 -4 -7 -1 -16 4 -11 3 -14 -5 -9 -7 4 -12 1 -12 -9 0 -9 -4 -13 -10 -10 -5 3
-10 -1 -10 -9 0 -8 -5 -18 -12 -22 -7 -5 -9 -2 -4 7 4 8 1 6 -7 -3 -8 -10 -18
-14 -23 -10 -4 4 -2 -2 6 -12 10 -13 10 -17 3 -12 -8 4 -13 2 -13 -4 0 -6 -3
-9 -7 -7 -10 5 -43 -30 -35 -37 5 -6 -13 -10 -30 -7 -4 0 -4 -7 -1 -16 5 -12
2 -15 -10 -10 -12 4 -14 2 -10 -10 4 -11 2 -14 -5 -9 -7 4 -12 1 -12 -9 0 -11
-5 -15 -14 -12 -11 4 -13 1 -9 -10 5 -13 2 -15 -11 -10 -10 4 -15 3 -11 -3 7
-12 -18 -40 -35 -40 -6 0 -8 -5 -4 -12 5 -8 2 -9 -10 -5 -14 6 -17 3 -12 -9 5
-12 2 -15 -10 -10 -15 6 -15 4 -3 -11 9 -11 10 -14 2 -9 -8 4 -13 2 -13 -5 0
-7 -3 -10 -6 -6 -7 7 -42 -26 -37 -35 4 -7 -11 -12 -29 -9 -4 0 -4 -7 -1 -16
4 -11 3 -14 -5 -9 -7 4 -12 1 -12 -9 0 -9 -4 -13 -10 -10 -5 3 -10 -1 -10 -10
0 -11 -5 -15 -14 -12 -11 4 -13 1 -9 -10 4 -11 2 -14 -5 -9 -7 4 -12 1 -12 -9
0 -9 -4 -13 -10 -10 -9 6 -15 -8 -11 -29 1 -5 -5 -3 -14 4 -13 11 -15 10 -9
-3 6 -17 -28 -41 -42 -29 -5 4 -2 -2 6 -12 10 -13 10 -17 3 -12 -8 4 -13 2
-13 -5 0 -7 -2 -10 -5 -7 -9 8 -85 -63 -85 -79 0 -8 -4 -11 -10 -8 -6 3 -10
-4 -10 -17 0 -17 -3 -19 -9 -9 -7 11 -10 9 -16 -8 -5 -16 -12 -20 -23 -16 -9
3 -13 3 -10 -1 11 -11 -11 -44 -29 -44 -9 0 -13 -3 -10 -7 8 -7 -63 -59 -75
-55 -5 1 -8 -2 -8 -8 0 -5 5 -10 10 -10 6 0 9 -3 9 -7 -1 -5 -1 -15 0 -23 1
-13 2 -13 11 0 7 11 10 12 10 2 0 -16 54 -72 68 -72 5 0 16 -8 23 -17 11 -15
11 -16 -1 -5 -8 6 -19 12 -24 12 -6 0 4 -10 22 -21 17 -12 32 -28 32 -37 0
-15 2 -15 10 -2 8 13 10 12 10 -4 0 -11 5 -16 14 -13 10 4 12 -1 9 -16 -4 -18
-3 -19 6 -7 9 13 11 13 11 -2 0 -16 11 -23 33 -19 5 1 5 -3 2 -10 -4 -6 2 -17
14 -25 12 -9 18 -21 15 -27 -4 -7 -4 -9 1 -5 4 4 14 0 22 -8 8 -8 19 -12 24
-8 5 3 9 2 8 -3 -3 -20 2 -34 11 -28 5 3 10 -1 10 -10 0 -9 9 -19 20 -22 11
-3 17 -9 14 -14 -3 -5 2 -9 11 -9 9 0 14 -4 11 -9 -3 -5 1 -11 9 -15 8 -3 15
-13 15 -23 0 -15 2 -16 10 -3 8 13 10 13 10 -2 0 -9 7 -21 16 -26 8 -5 24 -22
35 -38 10 -16 19 -24 19 -18 0 5 -6 16 -12 24 -11 12 -10 12 5 1 9 -7 17 -20
17 -28 0 -10 6 -13 16 -9 8 3 13 2 9 -3 -3 -5 1 -16 9 -24 8 -8 12 -18 8 -22
-4 -5 -2 -5 5 -1 6 3 18 -3 27 -15 8 -12 19 -18 25 -14 7 3 11 3 10 -2 -4 -22
3 -33 19 -33 15 0 15 -2 2 -11 -12 -9 -11 -10 7 -6 15 3 20 1 16 -9 -3 -9 2
-14 13 -14 16 0 17 -2 4 -10 -12 -8 -12 -10 -1 -10 8 0 20 -8 28 -17 8 -10 11
-12 7 -4 -5 10 -3 12 5 7 7 -5 10 -14 7 -22 -3 -7 0 -16 6 -20 7 -4 8 -3 4 4
-4 7 -2 12 3 12 6 0 11 -7 11 -15 0 -13 12 -19 32 -16 4 0 5 -8 3 -19 -3 -13
7 -26 30 -40 18 -11 36 -27 39 -35 3 -8 12 -15 19 -15 8 0 21 -8 28 -18 13
-15 12 -16 -4 -3 -9 8 -20 11 -23 9 -3 -3 8 -12 25 -19 16 -7 27 -17 25 -21
-3 -4 2 -8 11 -8 9 0 13 -4 10 -10 -3 -5 -1 -10 5 -10 6 0 8 -5 4 -12 -4 -6
-3 -8 3 -5 5 4 20 -5 32 -19 12 -14 26 -22 31 -19 6 3 7 -1 4 -9 -3 -9 -1 -16
6 -16 6 0 8 -5 4 -12 -4 -6 -3 -8 4 -4 6 3 17 -3 26 -15 9 -13 19 -18 27 -14
7 5 10 4 6 -2 -8 -13 27 -55 38 -45 5 4 6 -1 2 -10 -3 -10 0 -19 9 -22 10 -4
12 -2 8 6 -4 7 -3 8 4 4 7 -4 12 -14 12 -22 0 -8 5 -12 10 -9 6 3 10 -1 10
-10 0 -9 5 -13 10 -10 6 3 10 -4 10 -17 0 -18 2 -20 10 -8 8 13 10 12 10 -3 0
-10 7 -20 15 -23 8 -3 24 -21 35 -39 15 -24 27 -33 41 -30 11 2 17 0 14 -5 -3
-4 1 -15 9 -23 8 -8 12 -18 8 -22 -4 -5 -2 -5 5 -1 6 3 18 -3 26 -14 7 -11 17
-17 20 -13 4 3 7 -1 7 -11 0 -9 4 -15 8 -12 4 2 14 -9 21 -25 7 -17 16 -28 19
-25 2 3 -1 14 -9 23 -13 16 -12 17 4 4 9 -7 17 -20 17 -28 0 -10 6 -13 16 -9
8 3 13 2 9 -3 -3 -5 1 -16 9 -24 8 -8 12 -18 8 -22 -4 -5 -2 -5 5 -1 6 3 18
-3 27 -15 8 -12 19 -18 25 -14 7 3 11 3 10 -2 -4 -22 3 -33 19 -33 15 0 15 -2
2 -11 -12 -9 -11 -10 7 -6 15 3 20 1 16 -9 -3 -9 2 -14 13 -14 16 0 17 -2 4
-10 -13 -8 -12 -10 3 -10 10 0 20 -7 23 -15 4 -8 10 -12 15 -9 5 3 9 -5 9 -18
0 -18 2 -20 10 -8 8 12 10 12 10 1 0 -15 46 -61 61 -61 5 0 9 5 9 11 0 5 6 7
13 3 7 -5 7 -2 -2 10 -8 9 -10 16 -5 15 13 -3 53 14 53 24 1 4 1 12 1 17 0 6
5 10 12 10 6 0 31 20 54 44 23 25 46 41 50 38 4 -4 4 -2 1 4 -9 16 19 38 35
28 10 -6 9 -3 -1 9 -13 17 -6 23 21 18 5 0 7 3 5 8 -3 12 50 60 58 52 4 -3 5
1 3 9 -2 9 3 14 11 12 12 -3 12 0 1 13 -11 13 -10 15 1 11 8 -3 28 6 44 21
l30 26 -30 -17 -30 -17 25 20 c14 11 38 30 53 42 17 13 26 27 22 37 -5 12 -3
13 10 2 13 -11 16 -11 13 1 -2 8 3 13 12 11 8 -2 12 -1 8 3 -4 4 10 23 30 43
20 19 31 32 23 27 -10 -5 -12 -4 -7 3 4 7 16 12 27 12 10 0 18 4 17 8 -4 11
91 102 105 102 7 0 5 5 -3 10 -11 7 -11 10 -2 10 7 0 10 5 6 12 -4 7 -3 8 4 4
15 -9 126 100 117 114 -4 6 -3 10 2 9 27 -5 35 1 23 17 -8 8 -9 14 -4 13 20
-3 35 2 29 10 -3 5 0 13 6 17 8 4 9 3 5 -4 -4 -7 -2 -12 3 -12 6 0 11 7 11 16
0 8 5 12 10 9 6 -3 10 1 10 9 0 9 7 16 16 16 10 0 14 5 10 16 -3 8 -2 12 4 9
6 -3 13 1 16 9 3 9 13 16 21 16 8 0 12 4 9 9 -3 5 1 12 10 15 10 4 14 12 10
22 -5 13 -3 14 7 6 10 -8 16 -6 26 10 7 11 8 17 2 13 -6 -3 -11 -4 -11 0 0 3
12 10 26 15 15 6 22 14 18 22 -4 7 -3 8 4 4 7 -4 12 -2 12 4 0 6 5 8 12 4 7
-5 9 -2 5 9 -4 12 -2 14 11 10 9 -3 14 -3 10 1 -8 9 14 36 23 30 4 -2 10 7 13
21 4 16 11 22 21 19 9 -4 15 0 15 10 0 9 7 16 15 16 8 0 15 7 15 16 0 9 5 12
12 8 8 -5 9 -2 5 10 -5 11 -3 15 5 10 7 -5 9 -2 5 9 -4 12 -2 14 10 10 11 -4
14 -2 9 5 -5 8 -1 10 10 5 14 -5 16 -2 12 15 -4 16 -2 19 10 15 10 -4 13 -2 8
6 -4 6 -4 11 1 10 19 -3 33 2 33 12 0 5 -5 7 -12 3 -7 -4 -8 -3 -4 4 4 6 14 8
23 5 11 -4 14 -3 9 5 -4 7 -2 12 4 12 6 0 8 4 5 10 -3 6 1 7 9 4 11 -4 16 0
16 10 0 9 7 16 16 16 8 0 12 5 9 10 -3 6 1 10 9 10 10 0 13 6 9 18 -3 9 -3 14
1 10 11 -9 59 40 51 52 -4 6 1 7 11 3 12 -4 15 -3 10 5 -4 8 -2 10 7 6 9 -3
16 3 20 15 3 14 10 19 21 15 12 -5 15 -2 10 10 -4 11 -1 16 11 16 11 0 15 5
11 16 -4 10 -2 13 6 8 8 -5 9 -2 5 9 -3 9 -3 16 1 16 23 -4 42 2 37 11 -3 6 1
13 9 16 9 3 14 10 11 14 -3 5 0 12 6 16 8 4 9 3 5 -4 -4 -7 -2 -12 3 -12 6 0
11 7 11 16 0 8 5 12 10 9 9 -6 14 8 11 28 -1 5 3 6 8 3 5 -3 18 9 30 27 11 17
21 27 21 21 0 -5 -6 -16 -12 -24 -7 -8 -3 -6 9 4 13 10 20 23 17 27 -3 5 0 9
5 9 6 0 11 5 11 11 0 5 -4 7 -10 4 -5 -3 -10 -2 -10 4 0 5 -9 13 -20 16 -11 4
-18 10 -16 13 2 4 -2 16 -10 27 -10 14 -14 15 -15 4 0 -8 -7 0 -14 16 -7 17
-16 29 -19 28 -17 -7 -26 -1 -26 18 0 11 -4 17 -10 14 -5 -3 -10 -1 -10 5 0 6
-4 8 -10 5 -5 -3 -10 3 -10 14 0 15 -4 19 -17 14 -10 -4 -14 -2 -9 5 3 6 -3
13 -14 17 -11 3 -19 9 -19 13 3 17 -2 32 -8 31 -5 -1 -15 -1 -23 0 -12 1 -12
3 -2 10 10 6 5 11 -17 21 -17 7 -28 16 -25 21 3 5 -2 12 -10 15 -9 3 -13 10
-10 15 3 5 -2 6 -10 3 -12 -4 -16 0 -16 16 0 11 -3 19 -7 17 -11 -6 -53 39
-45 48 3 3 -1 3 -11 -1 -11 -4 -17 -1 -17 9 0 9 -9 18 -20 22 -11 3 -19 9 -19
13 3 18 -2 33 -9 28 -4 -2 -14 -1 -22 5 -13 7 -13 9 0 9 8 0 0 9 -17 20 -18
11 -33 24 -33 30 0 5 -8 10 -17 10 -15 0 -16 2 -3 10 12 8 10 10 -8 10 -13 0
-21 4 -17 9 3 5 -4 12 -14 16 -13 4 -18 11 -14 22 4 11 3 14 -5 9 -8 -4 -15 1
-20 14 -4 12 -11 21 -15 21 -21 -2 -27 0 -27 12 0 7 -18 28 -39 47 -22 18 -38
37 -35 42 3 4 -3 5 -12 1 -12 -4 -15 -3 -10 5 4 7 1 15 -8 18 -9 3 -13 10 -10
15 3 5 -2 6 -10 3 -10 -4 -16 -1 -16 9 0 9 -9 18 -20 22 -11 3 -19 9 -19 13 3
17 -1 35 -7 30 -7 -8 -51 35 -46 45 2 4 0 6 -5 5 -13 -4 -63 49 -55 58 4 4 -1
4 -11 1 -11 -4 -16 -3 -12 3 3 5 -5 15 -19 22 -22 9 -24 14 -13 26 8 11 9 14
0 9 -7 -4 -16 0 -22 10 -8 14 -10 15 -11 3 0 -13 -2 -13 -9 0 -6 8 -7 18 -5
22 3 4 -2 5 -11 2 -11 -5 -14 -2 -8 12 4 12 3 15 -5 10 -8 -4 -15 1 -20 14 -4
12 -11 21 -15 21 -20 -2 -25 1 -30 20 -3 12 -10 18 -16 14 -7 -4 -8 0 -4 11 3
10 2 15 -3 12 -12 -6 -54 38 -45 48 3 4 1 4 -5 1 -6 -4 -20 4 -30 18 -10 13
-21 22 -26 19 -4 -3 -8 5 -8 17 0 12 -3 19 -6 16 -4 -4 -14 1 -23 11 -9 10
-24 21 -33 25 -10 3 -18 16 -18 27 0 11 -3 19 -7 19 -17 -3 -33 1 -32 9 3 16
-1 32 -8 31 -5 -1 -15 -1 -23 0 -12 1 -13 3 -1 10 11 7 9 10 -8 16 -12 3 -19
11 -15 16 3 5 2 9 -3 8 -4 -1 -16 1 -26 6 -15 6 -15 10 -5 23 9 11 9 14 1 9
-7 -4 -16 0 -22 10 -8 14 -10 15 -11 3 0 -13 -2 -13 -9 0 -6 8 -7 18 -5 22 3
4 -2 5 -11 2 -11 -5 -14 -2 -8 12 4 12 3 15 -5 10 -7 -4 -15 -1 -18 8 -3 8
-14 18 -25 21 -10 4 -19 12 -19 18 0 7 -18 28 -39 47 -22 18 -38 37 -35 42 3
4 -3 5 -12 1 -12 -4 -15 -3 -10 5 4 7 1 15 -8 18 -9 3 -14 9 -12 13 8 12 -31
10 -42 -1z m28 -2 c0 -2 -7 -7 -16 -10 -8 -3 -12 -2 -9 4 6 10 25 14 25 6z
m-190 -190 c0 -2 -8 -10 -17 -17 -16 -13 -17 -12 -4 4 13 16 21 21 21 13z
m-97 -101 c-3 -9 -8 -14 -10 -11 -3 3 -2 9 2 15 9 16 15 13 8 -4z m-383 -379
c0 -2 -8 -10 -17 -17 -16 -13 -17 -12 -4 4 13 16 21 21 21 13z m709 -303 c15
-14 20 -26 15 -35 -6 -10 -4 -10 9 1 15 12 17 12 11 -4 -5 -13 -4 -16 4 -11 7
4 12 2 12 -4 0 -7 7 -10 14 -7 10 4 13 1 9 -8 -3 -8 2 -18 11 -21 9 -3 13 -10
10 -15 -3 -5 4 -9 15 -9 11 0 23 -4 26 -10 3 -6 -2 -8 -12 -5 -12 4 -11 2 3
-6 12 -6 27 -21 33 -33 7 -12 25 -27 42 -35 16 -7 27 -17 24 -21 -3 -5 10 -21
30 -37 19 -15 35 -34 35 -41 0 -6 3 -11 8 -10 15 6 54 -40 46 -54 -6 -10 -4
-10 9 1 14 11 17 11 17 -1 0 -16 41 -54 54 -50 5 2 6 -4 3 -13 -4 -9 -1 -15 8
-15 8 0 15 -6 15 -14 0 -12 21 -27 42 -30 3 -1 10 -5 15 -10 5 -6 2 -6 -7 -1
-8 4 -6 -1 5 -12 11 -11 25 -18 30 -15 6 3 4 -2 -4 -11 -12 -15 -12 -17 3 -11
9 3 16 2 16 -3 0 -6 10 -15 23 -21 12 -6 16 -11 10 -11 -18 -1 27 -51 45 -51
9 0 13 -3 9 -6 -8 -9 16 -33 27 -26 5 3 7 -2 3 -11 -3 -9 -3 -16 2 -14 4 1 22
-13 39 -32 18 -18 32 -29 33 -25 0 5 4 -1 10 -14 5 -15 13 -21 21 -16 7 4 10
4 6 -1 -4 -4 -3 -14 3 -22 9 -10 8 -13 -5 -13 -9 0 -15 -6 -13 -12 1 -7 -6
-12 -15 -10 -20 3 -24 -14 -5 -22 6 -3 3 -4 -8 -3 -11 1 -20 -4 -20 -13 -1 -8
-6 -14 -13 -13 -7 2 -12 -4 -12 -13 0 -8 -4 -12 -10 -9 -5 3 -10 -1 -10 -10 0
-10 -5 -13 -12 -9 -7 5 -9 2 -5 -9 4 -11 2 -14 -9 -10 -9 3 -14 -1 -14 -12 0
-10 -5 -13 -12 -9 -8 5 -9 2 -4 -12 4 -10 4 -15 0 -12 -10 10 -46 -11 -39 -23
4 -5 1 -9 -4 -9 -16 0 -61 -42 -61 -57 0 -7 -11 -19 -25 -25 -14 -6 -25 -18
-25 -25 0 -8 -4 -12 -9 -8 -12 7 -33 -29 -23 -39 3 -4 -1 -4 -11 -1 -12 5 -19
0 -26 -16 -10 -27 -46 -60 -55 -52 -3 4 -6 -1 -6 -11 0 -11 -4 -14 -12 -10 -7
5 -9 2 -5 -9 4 -12 2 -14 -10 -10 -11 4 -14 2 -9 -5 6 -11 -5 -16 -26 -13 -4
0 -4 -7 -1 -16 5 -12 2 -15 -9 -10 -17 6 -33 -18 -23 -34 4 -5 -2 -6 -11 -2
-13 5 -16 3 -11 -10 4 -11 2 -14 -9 -10 -9 3 -14 -1 -14 -12 0 -10 -5 -13 -12
-9 -8 5 -9 2 -5 -9 3 -9 3 -16 -1 -14 -4 1 -21 -13 -38 -30 -17 -18 -34 -30
-37 -26 -4 3 -7 -2 -7 -12 0 -10 -3 -15 -7 -12 -3 4 -11 -3 -17 -15 -6 -12
-18 -23 -26 -26 -9 -3 -7 2 5 12 20 17 20 17 -2 6 -13 -6 -22 -14 -22 -18 3
-21 -2 -32 -13 -26 -7 5 -9 2 -5 -9 4 -12 2 -14 -10 -10 -10 4 -14 2 -10 -4 4
-6 -2 -13 -13 -16 -14 -4 -20 0 -20 11 0 13 -2 14 -9 4 -6 -10 -10 -9 -14 7
-3 12 -11 20 -19 19 -8 -2 -13 6 -12 20 1 19 -1 20 -14 10 -13 -11 -15 -10 -9
4 3 10 3 17 -1 16 -14 -4 -52 23 -46 33 3 6 -4 13 -16 16 -16 4 -18 8 -8 14
10 7 10 9 -2 9 -18 0 -50 34 -50 53 0 8 -4 7 -10 -3 -8 -13 -10 -12 -10 3 0
10 -11 22 -25 27 -14 5 -25 12 -25 15 0 4 6 3 13 0 6 -4 4 0 -5 8 -10 8 -18
19 -18 26 0 11 -14 15 -35 11 -5 -1 -7 1 -3 5 8 9 -10 28 -35 38 -9 3 -17 10
-16 14 4 23 -3 32 -18 26 -10 -3 -15 -3 -11 1 3 4 -2 16 -13 27 -11 11 -17 24
-14 28 3 5 -4 7 -16 4 -16 -5 -20 -2 -17 13 2 13 -2 18 -14 16 -13 -2 -16 2
-11 14 4 11 2 15 -4 11 -6 -4 -14 0 -17 8 -3 8 -11 14 -18 13 -8 -2 -13 6 -12
20 1 17 -2 20 -11 12 -10 -8 -15 -6 -19 8 -4 11 -16 22 -26 25 -13 3 -18 11
-14 20 3 8 0 18 -7 23 -8 4 -10 3 -5 -4 5 -8 2 -10 -9 -6 -9 4 -14 9 -11 11 3
3 -6 15 -20 28 -13 12 -24 29 -24 36 0 11 -2 11 -10 -1 -8 -13 -10 -12 -10 3
0 11 -9 21 -20 24 -17 5 -25 20 -22 44 1 4 -8 5 -18 2 -15 -4 -20 0 -20 16 0
11 -5 21 -11 21 -5 0 -7 -6 -3 -12 4 -7 3 -9 -1 -5 -5 4 -11 20 -12 35 -3 21
-1 24 7 12 9 -14 14 -7 11 13 -1 4 10 12 25 17 14 6 22 14 19 20 -3 5 2 10 12
10 15 0 16 2 3 10 -13 8 -12 10 3 10 9 0 17 5 17 11 0 5 4 8 9 5 5 -3 14 8 21
24 7 16 15 29 19 28 17 -2 34 3 28 8 -11 11 31 47 45 38 9 -5 8 -2 -2 11 -8
10 -10 16 -4 12 7 -4 14 0 18 8 3 8 12 15 21 15 14 0 20 13 15 35 -1 6 2 7 6
3 9 -10 36 11 28 23 -3 5 3 6 12 2 10 -4 15 -2 11 4 -7 11 28 45 37 36 5 -6
10 11 8 28 -1 4 12 12 28 19 16 7 27 16 24 21 -3 5 0 9 5 9 6 0 11 8 11 18 0
14 2 15 10 2 8 -13 10 -13 10 2 0 9 9 23 20 31 11 8 17 17 14 20 -4 4 2 5 14
2 16 -3 20 1 18 20 -2 16 1 22 10 18 8 -3 14 0 14 6 0 7 8 15 18 18 9 4 23 13
30 20 11 11 11 13 0 14 -7 0 -3 4 10 10 13 5 21 13 17 19 -3 6 1 7 10 4 10 -4
15 -2 13 7 -2 8 4 13 14 13 11 -1 14 4 11 14 -4 9 -2 13 4 9 6 -4 14 5 18 20
5 21 8 24 16 12 6 -10 9 -11 9 -1 0 7 12 24 26 37 14 13 23 29 19 34 -4 7 0 8
11 4 14 -5 16 -3 11 11 -4 10 -3 15 3 11 6 -3 10 -2 10 3 0 16 35 8 59 -15z
m-1579 -566 c0 -2 -10 -12 -22 -23 l-23 -19 19 23 c18 21 26 27 26 19z m601
-1064 c13 -17 13 -17 -6 -3 -11 8 -22 16 -24 17 -2 2 0 3 6 3 6 0 17 -8 24
-17z m488 -497 c-3 -3 -11 5 -18 17 -13 21 -12 21 5 5 10 -10 16 -20 13 -22z"/>
<path d="M3000 2870 c-9 -6 -10 -10 -3 -10 6 0 15 5 18 10 8 12 4 12 -15 0z"/>
<path d="M2760 2630 c-9 -6 -10 -10 -3 -10 6 0 15 5 18 10 8 12 4 12 -15 0z"/>
<path d="M2470 2586 c0 -2 7 -7 16 -10 8 -3 12 -2 9 4 -6 10 -25 14 -25 6z"/>
<path d="M804 2657 c-1 -41 4 -75 10 -79 8 -5 8 -8 0 -8 -6 0 -11 -28 -11 -75
0 -41 3 -73 6 -70 4 2 7 -5 7 -15 0 -10 -3 -17 -7 -14 -4 2 -7 -46 -6 -106 0
-71 4 -110 11 -110 8 0 7 -3 0 -8 -14 -9 -13 -114 1 -124 7 -5 6 -8 -1 -8 -13
0 -13 -139 0 -159 6 -9 5 -12 -2 -7 -7 4 -10 -1 -9 -14 1 -11 6 -20 12 -20 7
0 7 -3 -1 -8 -12 -8 -15 -214 -2 -206 4 3 3 -6 -3 -20 -10 -20 -9 -29 2 -43 8
-9 9 -14 2 -10 -8 5 -11 0 -10 -13 1 -11 6 -20 12 -20 7 0 7 -3 -1 -8 -14 -9
-15 -214 -1 -205 6 4 7 1 1 -8 -13 -21 -14 -202 0 -218 8 -11 8 -13 -1 -8 -8
5 -11 0 -10 -13 1 -11 6 -20 12 -20 7 0 7 -3 -1 -8 -14 -9 -15 -214 -1 -205 6
4 7 1 1 -8 -13 -21 -14 -361 0 -378 8 -11 8 -13 -1 -8 -8 5 -11 0 -10 -13 1
-11 6 -20 12 -20 7 0 7 -3 -1 -8 -14 -9 -15 -214 -1 -205 6 4 7 1 1 -8 -4 -8
-9 -39 -9 -70 l-2 -57 280 -1 c209 -1 284 2 296 12 11 9 13 9 8 0 -6 -9 30
-12 149 -12 138 -1 159 1 170 17 9 13 10 20 1 31 -10 12 -9 13 7 7 19 -7 19
-6 2 13 -17 18 -17 19 1 24 16 4 16 5 1 6 -10 0 -18 6 -18 12 0 6 7 8 17 5 15
-6 15 -4 -2 14 -18 19 -18 20 1 20 16 1 15 3 -6 16 -14 8 -18 13 -8 10 13 -4
15 1 12 27 -3 18 -7 37 -9 44 -2 6 3 14 12 17 11 4 12 10 5 19 -13 16 -21 77
-10 77 4 0 8 -5 8 -12 0 -6 3 -8 7 -5 3 4 -2 16 -12 27 -18 19 -17 20 1 20 16
1 15 3 -6 15 -19 11 -21 14 -7 15 9 0 17 4 17 9 0 5 -8 12 -17 14 -13 3 -12 5
5 6 22 1 22 2 6 18 -15 16 -15 17 2 24 18 7 18 8 -1 8 -16 1 -17 3 -6 10 11 7
10 10 -5 14 -16 4 -15 5 4 6 22 1 22 2 6 18 -15 16 -15 17 2 24 18 7 18 8 -1
8 -16 1 -17 3 -6 10 11 7 10 10 -5 14 -16 4 -15 5 4 6 22 1 22 2 6 18 -15 16
-15 17 2 24 18 7 18 8 -1 8 -16 1 -17 3 -6 10 11 7 10 10 -5 14 -16 4 -15 5 4
6 22 1 22 2 6 18 -15 16 -15 17 2 24 17 7 17 8 2 8 -10 1 -18 6 -18 12 0 6 7
8 17 5 15 -6 15 -4 -2 14 -18 19 -18 20 1 20 16 1 15 3 -6 16 -14 8 -18 13 -8
10 14 -4 18 11 7 34 -7 17 -2 47 11 58 13 11 11 12 -10 7 -17 -4 -21 -3 -11 3
9 6 12 22 9 46 -2 20 0 36 4 36 4 0 8 -5 8 -12 0 -6 3 -8 7 -5 3 4 -2 16 -12
27 -18 19 -17 20 1 20 16 1 15 3 -6 15 -19 11 -21 14 -7 15 22 0 22 17 0 23
-13 3 -12 5 5 6 22 1 22 2 6 18 -15 16 -15 17 2 24 18 7 18 8 -1 8 -16 1 -17
3 -6 10 11 7 10 10 -5 14 -16 4 -15 5 4 6 22 1 22 2 6 18 -15 16 -15 17 2 24
17 7 17 8 2 8 -10 1 -18 6 -18 12 0 6 7 8 17 5 15 -6 15 -4 -2 14 -18 19 -18
20 1 20 16 1 15 3 -6 15 -19 11 -21 14 -7 15 9 0 17 5 17 11 0 5 -3 8 -8 6
-14 -9 -7 58 8 71 13 11 11 12 -10 7 -17 -4 -21 -3 -11 3 9 6 12 22 9 46 -2
20 0 36 4 36 4 0 8 -5 8 -12 0 -6 3 -8 7 -5 3 4 -2 16 -12 27 -18 19 -17 20 1
20 16 1 16 2 -5 14 l-23 13 23 6 c22 6 22 7 4 27 -18 19 -18 20 1 20 16 1 15
3 -6 16 -14 8 -18 13 -8 10 11 -3 15 1 13 12 -2 9 -4 17 -6 17 -1 0 -2 12 -3
28 -1 15 1 27 5 27 4 0 10 7 13 16 5 14 4 15 -8 5 -11 -9 -16 -9 -22 0 -5 8
-3 9 6 4 10 -6 12 -1 8 18 -3 15 -2 24 3 22 4 -3 10 -1 14 5 3 5 -1 10 -10 10
-11 0 -15 5 -11 15 3 10 -3 17 -19 21 -15 4 -22 11 -18 20 3 9 0 14 -8 12 -8
-2 -13 2 -12 9 2 8 -4 10 -14 6 -13 -5 -15 -2 -9 12 4 11 4 16 0 12 -4 -4 -15
4 -24 19 -10 14 -21 25 -26 25 -5 -1 -9 3 -9 8 0 13 -14 26 -28 26 -7 1 -11 6
-10 13 2 6 -8 14 -22 18 -14 3 -22 10 -19 15 3 5 0 9 -6 9 -6 0 -8 5 -4 13 6
9 4 9 -8 -1 -13 -11 -16 -10 -14 5 0 10 -5 17 -11 16 -12 -3 -18 10 -13 32 1
5 -1 7 -5 3 -10 -9 -45 24 -38 35 3 6 1 7 -4 4 -6 -4 -14 0 -17 9 -3 8 -10 12
-16 9 -6 -4 -7 1 -3 11 4 12 3 15 -6 10 -8 -5 -14 -1 -17 11 -3 10 -21 29 -39
42 -19 13 -32 28 -28 34 4 6 0 8 -11 4 -10 -4 -15 -3 -11 3 3 6 -1 13 -9 16
-9 3 -13 11 -9 17 3 5 2 7 -4 4 -12 -7 -44 28 -35 39 4 4 2 4 -4 1 -6 -4 -20
1 -30 9 -10 9 -12 12 -4 8 8 -4 0 6 -17 23 -18 16 -30 33 -25 37 4 4 2 7 -3 6
-24 -5 -34 1 -28 18 3 9 3 14 -1 10 -9 -8 -62 42 -58 55 1 5 -1 6 -5 4 -11 -6
-34 19 -25 27 3 4 -1 4 -11 0 -16 -6 -23 5 -17 31 1 6 -1 7 -5 3 -10 -9 -45
24 -38 35 3 6 1 7 -4 4 -6 -4 -14 0 -17 9 -3 8 -10 12 -16 9 -6 -4 -7 1 -3 11
4 12 3 15 -5 10 -7 -4 -12 -1 -12 8 0 8 -5 18 -12 22 -7 4 -8 3 -4 -4 9 -15
-6 -16 -20 -2 -6 6 -10 -15 -10 -63z m501 -417 c3 -5 1 -10 -4 -10 -6 0 -11 5
-11 10 0 6 2 10 4 10 3 0 8 -4 11 -10z m250 -240 c3 -5 1 -10 -4 -10 -6 0 -11
5 -11 10 0 6 2 10 4 10 3 0 8 -4 11 -10z m162 -1676 c-3 -3 -12 -4 -19 -1 -8
3 -5 6 6 6 11 1 17 -2 13 -5z"/>
<path d="M4363 2718 c-6 -7 -13 -21 -16 -30 -4 -11 -12 -15 -22 -12 -11 5 -14
2 -9 -10 4 -11 1 -16 -12 -16 -9 0 -15 -3 -11 -6 7 -7 -29 -44 -43 -44 -5 0
-6 -7 -3 -17 4 -10 2 -14 -4 -10 -13 8 -63 -30 -63 -48 0 -8 -5 -17 -12 -21
-7 -5 -9 -2 -4 7 4 8 0 5 -8 -5 -9 -11 -16 -24 -16 -29 0 -4 -3 -6 -7 -4 -5 3
-17 -5 -28 -16 -11 -11 -13 -16 -5 -12 8 5 -1 -7 -20 -26 -19 -20 -38 -34 -42
-31 -8 3 -12 -14 -9 -32 1 -5 -4 -6 -12 -3 -14 5 -90 -67 -130 -123 -10 -14
-15 -18 -11 -10 4 8 -5 3 -20 -12 -15 -15 -25 -32 -21 -38 4 -6 3 -10 -2 -9
-18 3 -33 -2 -33 -11 0 -14 -37 -50 -44 -42 -3 3 -6 -3 -6 -12 0 -12 -5 -16
-14 -13 -9 4 -13 1 -10 -6 2 -7 -8 -24 -23 -37 l-28 -25 25 30 25 30 -27 -24
c-15 -13 -30 -33 -34 -43 -3 -10 -8 -17 -12 -14 -4 2 -16 -6 -27 -17 -11 -11
-14 -16 -6 -12 9 5 12 4 7 -3 -4 -7 -13 -12 -20 -12 -13 0 -44 -29 -45 -42 -1
-11 -41 -50 -41 -40 0 4 -6 -4 -14 -18 -8 -15 -9 -30 -4 -37 5 -7 5 -14 -2
-18 -8 -5 -7 -11 2 -23 8 -9 8 -13 2 -9 -7 4 -14 0 -18 -8 -3 -8 -1 -17 4 -20
5 -3 6 -13 3 -22 -4 -10 -2 -14 4 -10 7 5 9 0 6 -14 -5 -16 -8 -18 -15 -7 -7
9 -8 8 -4 -5 3 -10 6 -21 6 -23 0 -3 6 -2 13 2 6 4 4 -2 -6 -13 -12 -14 -15
-23 -8 -28 8 -4 8 -12 1 -25 -9 -16 -8 -18 5 -14 11 5 13 2 9 -10 -3 -9 -9
-14 -13 -11 -10 6 -7 -33 4 -42 4 -5 5 -2 0 6 -6 10 -4 12 4 7 7 -5 9 -12 3
-19 -5 -7 -12 -22 -14 -34 -4 -16 -2 -20 8 -16 10 4 12 0 8 -11 -3 -9 -9 -14
-13 -11 -10 6 -7 -33 4 -42 4 -5 5 -2 1 5 -4 6 -2 12 3 12 13 0 14 -17 2 -24
-5 -3 -11 -17 -13 -30 -4 -17 -1 -23 9 -19 9 4 11 0 7 -11 -3 -9 -9 -14 -13
-11 -10 6 -7 -33 4 -42 4 -5 5 -2 0 6 -6 10 -4 12 4 7 7 -5 9 -12 3 -19 -5 -7
-12 -22 -14 -34 -4 -16 -2 -20 8 -16 10 4 12 0 8 -11 -3 -9 -9 -14 -13 -11
-10 6 -7 -33 4 -42 4 -5 5 -2 1 5 -4 6 -2 12 3 12 13 0 14 -17 2 -24 -5 -3
-11 -17 -13 -30 -4 -17 -1 -23 9 -19 9 4 11 0 7 -11 -3 -9 -10 -13 -15 -11 -4
3 -2 -9 5 -27 9 -21 11 -40 5 -55 -5 -13 -6 -23 -3 -23 4 0 1 -6 -5 -14 -8 -9
-8 -16 -2 -20 6 -4 7 -14 4 -23 -4 -10 -2 -14 4 -10 7 5 9 0 6 -14 -5 -16 -8
-18 -15 -7 -7 9 -8 8 -4 -5 3 -10 6 -21 6 -23 0 -3 6 -2 13 2 6 4 4 -2 -6 -13
-13 -14 -15 -23 -7 -28 8 -5 8 -10 0 -20 -7 -9 -8 -15 -1 -19 6 -4 7 -14 4
-23 -4 -10 -2 -14 4 -10 7 5 9 0 6 -14 -5 -16 -8 -18 -15 -7 -7 9 -8 8 -4 -5
3 -10 6 -21 6 -23 0 -3 6 -2 13 2 6 4 4 -2 -6 -13 -12 -14 -15 -23 -8 -28 6
-3 11 -11 11 -16 0 -6 -4 -8 -8 -5 -11 7 -8 -31 3 -41 4 -5 5 -2 1 5 -4 6 -2
12 3 12 13 0 14 -17 2 -24 -5 -3 -11 -17 -13 -30 -4 -17 -1 -23 9 -19 9 4 11
0 7 -11 -3 -9 -9 -14 -13 -11 -10 6 -7 -33 4 -42 4 -5 5 -1 0 7 -5 8 -4 12 0
7 13 -12 14 -48 1 -38 -7 6 -11 2 -11 -14 0 -15 5 -21 15 -18 9 3 8 -1 -4 -11
-19 -15 -19 -16 -1 -16 18 0 18 -1 -1 -16 -10 -8 -14 -13 -7 -10 6 4 14 2 17
-3 3 -5 0 -11 -7 -14 -15 -5 -16 -62 -2 -74 4 -5 5 -2 1 4 -4 7 -2 13 3 13 13
0 14 -17 2 -24 -5 -3 -11 -17 -13 -30 -4 -17 -1 -23 9 -19 9 4 11 0 7 -11 -3
-9 -9 -14 -13 -12 -4 3 -7 -4 -7 -14 0 -10 4 -17 7 -14 4 2 10 0 13 -5 3 -5
-1 -11 -9 -14 -10 -5 -12 -13 -5 -36 4 -16 6 -32 2 -35 -3 -3 0 -6 7 -6 7 0 9
-4 6 -10 -4 -6 152 -9 439 -9 410 0 445 1 449 17 9 36 7 76 -5 90 -7 9 -8 13
-3 10 14 -8 14 171 1 191 -6 10 -6 12 3 7 12 -8 9 33 -5 55 -4 7 -3 9 3 6 6
-4 10 26 10 83 0 49 -3 88 -6 85 -4 -2 -7 5 -7 15 0 10 3 17 7 15 9 -6 5 198
-5 214 -6 10 -6 12 3 7 12 -8 9 33 -5 55 -4 7 -3 9 3 6 6 -4 10 26 10 83 0 49
-3 88 -6 85 -4 -2 -7 5 -7 15 0 10 3 17 6 15 3 -2 6 63 6 145 1 82 -2 147 -6
145 -3 -2 -6 5 -6 15 0 10 3 17 7 15 9 -6 5 198 -5 214 -6 10 -6 12 3 7 12 -8
9 33 -5 55 -4 7 -3 9 3 6 6 -4 10 26 10 83 0 49 -3 88 -6 85 -4 -2 -7 5 -7 15
0 10 3 17 7 15 9 -6 5 198 -5 214 -6 10 -6 12 3 7 12 -8 9 33 -5 55 -4 7 -3 9
3 6 6 -4 10 26 10 83 0 49 -3 88 -6 85 -4 -2 -7 5 -7 15 0 10 3 17 7 15 10 -7
5 198 -5 214 -6 10 -5 12 2 7 8 -5 12 3 12 24 0 22 -4 29 -12 24 -10 -6 -10
-4 -2 7 16 20 14 49 -3 49 -8 0 -11 5 -8 10 9 14 -1 12 -12 -2z m-370 -393
c-3 -9 -8 -14 -10 -11 -3 3 -2 9 2 15 9 16 15 13 8 -4z m-33 -28 c0 -2 -10
-12 -22 -23 l-23 -19 19 23 c18 21 26 27 26 19z m-455 -1966 c3 -5 2 -12 -3
-15 -5 -3 -9 1 -9 9 0 17 3 19 12 6z"/>
<path d="M1716 1713 c-6 -14 -5 -15 5 -6 7 7 10 15 7 18 -3 3 -9 -2 -12 -12z"/>
<path d="M3475 1040 c-3 -5 -1 -10 4 -10 6 0 11 5 11 10 0 6 -2 10 -4 10 -3 0
-8 -4 -11 -10z"/>
<path d="M1716 913 c-6 -14 -5 -15 5 -6 7 7 10 15 7 18 -3 3 -9 -2 -12 -12z"/>
</g>
</svg>
